<mxfile host="app.diagrams.net" modified="2020-11-07T08:35:42.575Z" agent="5.0 (Windows NT 6.1; Win64; x64) AppleWebKit/537.36 (KHTML, like Gecko) Chrome/86.0.4240.183 Safari/537.36" etag="-1Oo5YrArlmBPIptriml" version="13.8.7" type="github">
  <diagram id="p6UrjECbgSdRof4HY0eb" name="Page-1">
    <mxGraphModel dx="2067" dy="1858" grid="1" gridSize="10" guides="1" tooltips="1" connect="1" arrows="1" fold="1" page="1" pageScale="1" pageWidth="827" pageHeight="1169" math="0" shadow="0">
      <root>
        <mxCell id="0" />
        <mxCell id="1" parent="0" />
        <mxCell id="dFT03Ro-pLz-tinxZf4C-1" value="" style="whiteSpace=wrap;html=1;aspect=fixed;fillColor=#e1d5e7;strokeColor=#9673a6;" parent="1" vertex="1">
          <mxGeometry x="260" y="200" width="150" height="150" as="geometry" />
        </mxCell>
        <mxCell id="dFT03Ro-pLz-tinxZf4C-3" value="Разработка сайта для размещения фотографий&amp;nbsp;" style="text;html=1;strokeColor=none;fillColor=none;align=center;verticalAlign=middle;whiteSpace=wrap;rounded=0;" parent="1" vertex="1">
          <mxGeometry x="270" y="240" width="130" height="70" as="geometry" />
        </mxCell>
        <mxCell id="dFT03Ro-pLz-tinxZf4C-4" value="" style="endArrow=classic;html=1;fillColor=#f8cecc;strokeColor=#b85450;" parent="1" edge="1">
          <mxGeometry width="50" height="50" relative="1" as="geometry">
            <mxPoint x="140" y="298" as="sourcePoint" />
            <mxPoint x="260" y="298" as="targetPoint" />
          </mxGeometry>
        </mxCell>
        <mxCell id="dFT03Ro-pLz-tinxZf4C-5" value="" style="endArrow=classic;html=1;fillColor=#f8cecc;strokeColor=#b85450;" parent="1" edge="1">
          <mxGeometry width="50" height="50" relative="1" as="geometry">
            <mxPoint x="140" y="320" as="sourcePoint" />
            <mxPoint x="260" y="320" as="targetPoint" />
          </mxGeometry>
        </mxCell>
        <mxCell id="dFT03Ro-pLz-tinxZf4C-6" value="" style="endArrow=classic;html=1;fillColor=#f8cecc;strokeColor=#b85450;" parent="1" edge="1">
          <mxGeometry width="50" height="50" relative="1" as="geometry">
            <mxPoint x="140" y="280" as="sourcePoint" />
            <mxPoint x="260" y="280" as="targetPoint" />
          </mxGeometry>
        </mxCell>
        <mxCell id="dFT03Ro-pLz-tinxZf4C-7" value="" style="endArrow=classic;html=1;fillColor=#f8cecc;strokeColor=#b85450;" parent="1" edge="1">
          <mxGeometry width="50" height="50" relative="1" as="geometry">
            <mxPoint x="142" y="265" as="sourcePoint" />
            <mxPoint x="262" y="265" as="targetPoint" />
          </mxGeometry>
        </mxCell>
        <mxCell id="dFT03Ro-pLz-tinxZf4C-9" value="" style="endArrow=classic;html=1;fillColor=#d5e8d4;strokeColor=#82b366;" parent="1" edge="1">
          <mxGeometry width="50" height="50" relative="1" as="geometry">
            <mxPoint x="410" y="290" as="sourcePoint" />
            <mxPoint x="530" y="290" as="targetPoint" />
          </mxGeometry>
        </mxCell>
        <mxCell id="dFT03Ro-pLz-tinxZf4C-12" value="" style="endArrow=classic;html=1;fillColor=#ffe6cc;strokeColor=#d79b00;" parent="1" edge="1">
          <mxGeometry width="50" height="50" relative="1" as="geometry">
            <mxPoint x="310" y="81" as="sourcePoint" />
            <mxPoint x="310" y="200" as="targetPoint" />
          </mxGeometry>
        </mxCell>
        <mxCell id="dFT03Ro-pLz-tinxZf4C-13" value="" style="endArrow=classic;html=1;fillColor=#ffe6cc;strokeColor=#d79b00;" parent="1" edge="1">
          <mxGeometry width="50" height="50" relative="1" as="geometry">
            <mxPoint x="335" y="110" as="sourcePoint" />
            <mxPoint x="334.5" y="200" as="targetPoint" />
          </mxGeometry>
        </mxCell>
        <mxCell id="dFT03Ro-pLz-tinxZf4C-20" value="" style="endArrow=classic;html=1;fillColor=#dae8fc;strokeColor=#6c8ebf;" parent="1" edge="1">
          <mxGeometry width="50" height="50" relative="1" as="geometry">
            <mxPoint x="270" y="480" as="sourcePoint" />
            <mxPoint x="270" y="349" as="targetPoint" />
          </mxGeometry>
        </mxCell>
        <mxCell id="dFT03Ro-pLz-tinxZf4C-27" value="Тип фото" style="text;html=1;strokeColor=none;fillColor=none;align=center;verticalAlign=middle;whiteSpace=wrap;rounded=0;rotation=0;" parent="1" vertex="1">
          <mxGeometry x="295" y="80" width="85" height="39" as="geometry" />
        </mxCell>
        <mxCell id="dFT03Ro-pLz-tinxZf4C-29" value="Размер фото" style="text;html=1;strokeColor=none;fillColor=none;align=center;verticalAlign=middle;whiteSpace=wrap;rounded=0;rotation=0;" parent="1" vertex="1">
          <mxGeometry x="329" y="120" width="91" height="30" as="geometry" />
        </mxCell>
        <mxCell id="dFT03Ro-pLz-tinxZf4C-30" value="Фотография" style="text;html=1;strokeColor=none;fillColor=none;align=center;verticalAlign=middle;whiteSpace=wrap;rounded=0;" parent="1" vertex="1">
          <mxGeometry x="182" y="247" width="40" height="20" as="geometry" />
        </mxCell>
        <mxCell id="dFT03Ro-pLz-tinxZf4C-31" value="ФИО" style="text;html=1;strokeColor=none;fillColor=none;align=center;verticalAlign=middle;whiteSpace=wrap;rounded=0;" parent="1" vertex="1">
          <mxGeometry x="163.5" y="264" width="70" height="19" as="geometry" />
        </mxCell>
        <mxCell id="dFT03Ro-pLz-tinxZf4C-32" value="Качество фото" style="text;html=1;strokeColor=none;fillColor=none;align=center;verticalAlign=middle;whiteSpace=wrap;rounded=0;rotation=0;" parent="1" vertex="1">
          <mxGeometry x="350" y="150" width="106" height="15" as="geometry" />
        </mxCell>
        <mxCell id="dFT03Ro-pLz-tinxZf4C-33" value="" style="endArrow=classic;html=1;fillColor=#ffe6cc;strokeColor=#d79b00;" parent="1" edge="1">
          <mxGeometry width="50" height="50" relative="1" as="geometry">
            <mxPoint x="360" y="150" as="sourcePoint" />
            <mxPoint x="360" y="200" as="targetPoint" />
          </mxGeometry>
        </mxCell>
        <mxCell id="aUMwL7hk3GGmmnr9Cz9R-1" value="Место для фотографии" style="text;html=1;strokeColor=none;fillColor=none;align=center;verticalAlign=middle;whiteSpace=wrap;rounded=0;" parent="1" vertex="1">
          <mxGeometry x="400" y="266" width="130" height="21" as="geometry" />
        </mxCell>
        <mxCell id="aUMwL7hk3GGmmnr9Cz9R-2" value="Почта" style="text;html=1;strokeColor=none;fillColor=none;align=center;verticalAlign=middle;whiteSpace=wrap;rounded=0;" parent="1" vertex="1">
          <mxGeometry x="175" y="267" width="46" height="47" as="geometry" />
        </mxCell>
        <mxCell id="aUMwL7hk3GGmmnr9Cz9R-9" value="Прайс" style="text;html=1;strokeColor=none;fillColor=none;align=center;verticalAlign=middle;whiteSpace=wrap;rounded=0;rotation=0;" parent="1" vertex="1">
          <mxGeometry x="380" y="166.5" width="40" height="20" as="geometry" />
        </mxCell>
        <mxCell id="aUMwL7hk3GGmmnr9Cz9R-11" value="" style="endArrow=classic;html=1;fillColor=#ffe6cc;strokeColor=#d79b00;" parent="1" edge="1">
          <mxGeometry width="50" height="50" relative="1" as="geometry">
            <mxPoint x="380" y="170" as="sourcePoint" />
            <mxPoint x="380" y="199.5" as="targetPoint" />
          </mxGeometry>
        </mxCell>
        <mxCell id="aUMwL7hk3GGmmnr9Cz9R-18" value="Телефон" style="text;html=1;strokeColor=none;fillColor=none;align=center;verticalAlign=middle;whiteSpace=wrap;rounded=0;" parent="1" vertex="1">
          <mxGeometry x="175" y="298" width="47" height="29" as="geometry" />
        </mxCell>
        <mxCell id="aUMwL7hk3GGmmnr9Cz9R-19" value="" style="endArrow=classic;html=1;fillColor=#dae8fc;strokeColor=#6c8ebf;" parent="1" edge="1">
          <mxGeometry width="50" height="50" relative="1" as="geometry">
            <mxPoint x="374" y="480" as="sourcePoint" />
            <mxPoint x="374" y="349" as="targetPoint" />
          </mxGeometry>
        </mxCell>
        <mxCell id="aUMwL7hk3GGmmnr9Cz9R-23" value="Пользователь" style="text;html=1;strokeColor=none;fillColor=none;align=center;verticalAlign=middle;whiteSpace=wrap;rounded=0;rotation=0;" parent="1" vertex="1">
          <mxGeometry x="250.5" y="400" width="120" height="28" as="geometry" />
        </mxCell>
        <mxCell id="aUMwL7hk3GGmmnr9Cz9R-24" value="Фотограф" style="text;html=1;strokeColor=none;fillColor=none;align=center;verticalAlign=middle;whiteSpace=wrap;rounded=0;rotation=0;" parent="1" vertex="1">
          <mxGeometry x="322" y="410" width="161" height="10" as="geometry" />
        </mxCell>
        <mxCell id="aUMwL7hk3GGmmnr9Cz9R-25" value="" style="endArrow=classic;html=1;fillColor=#f8cecc;strokeColor=#b85450;" parent="1" edge="1">
          <mxGeometry width="50" height="50" relative="1" as="geometry">
            <mxPoint x="140" y="340" as="sourcePoint" />
            <mxPoint x="260" y="340" as="targetPoint" />
          </mxGeometry>
        </mxCell>
        <mxCell id="aUMwL7hk3GGmmnr9Cz9R-26" value="Тип фото" style="text;html=1;strokeColor=none;fillColor=none;align=center;verticalAlign=middle;whiteSpace=wrap;rounded=0;rotation=0;" parent="1" vertex="1">
          <mxGeometry x="158.5" y="310" width="80" height="46" as="geometry" />
        </mxCell>
        <mxCell id="aUMwL7hk3GGmmnr9Cz9R-28" value="" style="endArrow=classic;html=1;fillColor=#f8cecc;strokeColor=#b85450;" parent="1" edge="1">
          <mxGeometry width="50" height="50" relative="1" as="geometry">
            <mxPoint x="142" y="210" as="sourcePoint" />
            <mxPoint x="262" y="210" as="targetPoint" />
          </mxGeometry>
        </mxCell>
        <mxCell id="aUMwL7hk3GGmmnr9Cz9R-29" value="" style="endArrow=classic;html=1;fillColor=#f8cecc;strokeColor=#b85450;" parent="1" edge="1">
          <mxGeometry width="50" height="50" relative="1" as="geometry">
            <mxPoint x="140" y="247" as="sourcePoint" />
            <mxPoint x="260" y="247" as="targetPoint" />
          </mxGeometry>
        </mxCell>
        <mxCell id="aUMwL7hk3GGmmnr9Cz9R-30" value="Размер фото" style="text;html=1;strokeColor=none;fillColor=none;align=center;verticalAlign=middle;whiteSpace=wrap;rounded=0;rotation=0;" parent="1" vertex="1">
          <mxGeometry x="156.5" y="230" width="91" height="18" as="geometry" />
        </mxCell>
        <mxCell id="aUMwL7hk3GGmmnr9Cz9R-31" value="" style="endArrow=classic;html=1;fillColor=#f8cecc;strokeColor=#b85450;" parent="1" edge="1">
          <mxGeometry width="50" height="50" relative="1" as="geometry">
            <mxPoint x="140" y="230" as="sourcePoint" />
            <mxPoint x="260" y="230" as="targetPoint" />
          </mxGeometry>
        </mxCell>
        <mxCell id="aUMwL7hk3GGmmnr9Cz9R-32" value="Качество фото" style="text;html=1;strokeColor=none;fillColor=none;align=center;verticalAlign=middle;whiteSpace=wrap;rounded=0;rotation=0;" parent="1" vertex="1">
          <mxGeometry x="148.5" y="210" width="102" height="27" as="geometry" />
        </mxCell>
        <mxCell id="aUMwL7hk3GGmmnr9Cz9R-33" value="Прайс" style="text;html=1;strokeColor=none;fillColor=none;align=center;verticalAlign=middle;whiteSpace=wrap;rounded=0;rotation=0;" parent="1" vertex="1">
          <mxGeometry x="178.5" y="190" width="40" height="20" as="geometry" />
        </mxCell>
        <mxCell id="dPdgdIDJKfHk3a8-XdrI-1" value="&lt;b&gt;&lt;font style=&quot;font-size: 32px&quot;&gt;Черный ящик&lt;/font&gt;&lt;/b&gt;" style="text;html=1;strokeColor=none;fillColor=none;align=center;verticalAlign=middle;whiteSpace=wrap;rounded=0;" parent="1" vertex="1">
          <mxGeometry x="205" y="-70" width="290" height="150" as="geometry" />
        </mxCell>
        <mxCell id="dPdgdIDJKfHk3a8-XdrI-3" value="" style="shape=flexArrow;endArrow=classic;html=1;strokeColor=#314354;fillColor=#647687;" parent="1" edge="1">
          <mxGeometry width="50" height="50" relative="1" as="geometry">
            <mxPoint x="350" y="20" as="sourcePoint" />
            <mxPoint x="350" y="70" as="targetPoint" />
          </mxGeometry>
        </mxCell>
        <mxCell id="dPdgdIDJKfHk3a8-XdrI-5" value="&lt;b&gt;&lt;font style=&quot;font-size: 32px&quot; color=&quot;#9e9e9e&quot;&gt;Серый ящик&lt;/font&gt;&lt;/b&gt;" style="text;html=1;strokeColor=none;fillColor=none;align=center;verticalAlign=middle;whiteSpace=wrap;rounded=0;" parent="1" vertex="1">
          <mxGeometry x="1090" y="-70" width="290" height="150" as="geometry" />
        </mxCell>
        <mxCell id="dPdgdIDJKfHk3a8-XdrI-6" value="" style="shape=flexArrow;endArrow=classic;html=1;strokeColor=#314354;fillColor=#647687;" parent="1" edge="1">
          <mxGeometry width="50" height="50" relative="1" as="geometry">
            <mxPoint x="1240" y="30" as="sourcePoint" />
            <mxPoint x="1240" y="80" as="targetPoint" />
          </mxGeometry>
        </mxCell>
        <mxCell id="dPdgdIDJKfHk3a8-XdrI-29" style="edgeStyle=orthogonalEdgeStyle;rounded=0;orthogonalLoop=1;jettySize=auto;html=1;exitX=1;exitY=0.5;exitDx=0;exitDy=0;entryX=0;entryY=0.5;entryDx=0;entryDy=0;strokeColor=#190033;" parent="1" source="dPdgdIDJKfHk3a8-XdrI-11" target="dPdgdIDJKfHk3a8-XdrI-12" edge="1">
          <mxGeometry relative="1" as="geometry" />
        </mxCell>
        <mxCell id="dPdgdIDJKfHk3a8-XdrI-11" value="" style="rounded=0;whiteSpace=wrap;html=1;fillColor=#fff2cc;strokeColor=#d6b656;" parent="1" vertex="1">
          <mxGeometry x="1040" y="280" width="120" height="80" as="geometry" />
        </mxCell>
        <mxCell id="dPdgdIDJKfHk3a8-XdrI-30" style="edgeStyle=orthogonalEdgeStyle;rounded=0;orthogonalLoop=1;jettySize=auto;html=1;exitX=1;exitY=0.5;exitDx=0;exitDy=0;entryX=0;entryY=0.5;entryDx=0;entryDy=0;strokeColor=#190033;" parent="1" source="dPdgdIDJKfHk3a8-XdrI-12" target="dPdgdIDJKfHk3a8-XdrI-19" edge="1">
          <mxGeometry relative="1" as="geometry" />
        </mxCell>
        <mxCell id="dPdgdIDJKfHk3a8-XdrI-12" value="" style="rounded=0;whiteSpace=wrap;html=1;fillColor=#f8cecc;strokeColor=#b85450;" parent="1" vertex="1">
          <mxGeometry x="1241" y="360" width="120" height="80" as="geometry" />
        </mxCell>
        <mxCell id="Dkpq2SNHd7-7ZHUDQCRo-1" style="edgeStyle=orthogonalEdgeStyle;rounded=0;orthogonalLoop=1;jettySize=auto;html=1;exitX=1;exitY=0.5;exitDx=0;exitDy=0;entryX=0;entryY=0.5;entryDx=0;entryDy=0;" parent="1" source="dPdgdIDJKfHk3a8-XdrI-13" target="dPdgdIDJKfHk3a8-XdrI-11" edge="1">
          <mxGeometry relative="1" as="geometry" />
        </mxCell>
        <mxCell id="dPdgdIDJKfHk3a8-XdrI-13" value="" style="rounded=0;whiteSpace=wrap;html=1;fillColor=#e1d5e7;strokeColor=#9673a6;" parent="1" vertex="1">
          <mxGeometry x="840" y="200" width="120" height="83" as="geometry" />
        </mxCell>
        <mxCell id="dPdgdIDJKfHk3a8-XdrI-16" value="Регистация" style="text;html=1;strokeColor=none;fillColor=none;align=center;verticalAlign=middle;whiteSpace=wrap;rounded=0;" parent="1" vertex="1">
          <mxGeometry x="880" y="233" width="40" height="20" as="geometry" />
        </mxCell>
        <mxCell id="dPdgdIDJKfHk3a8-XdrI-17" value="Выбор" style="text;html=1;strokeColor=none;fillColor=none;align=center;verticalAlign=middle;whiteSpace=wrap;rounded=0;" parent="1" vertex="1">
          <mxGeometry x="1080" y="310" width="40" height="20" as="geometry" />
        </mxCell>
        <mxCell id="dPdgdIDJKfHk3a8-XdrI-18" value="Оплата" style="text;html=1;strokeColor=none;fillColor=none;align=center;verticalAlign=middle;whiteSpace=wrap;rounded=0;" parent="1" vertex="1">
          <mxGeometry x="1281" y="390" width="40" height="20" as="geometry" />
        </mxCell>
        <mxCell id="dPdgdIDJKfHk3a8-XdrI-19" value="" style="rounded=0;whiteSpace=wrap;html=1;fillColor=#ffe6cc;strokeColor=#d79b00;" parent="1" vertex="1">
          <mxGeometry x="1440" y="440" width="120" height="80" as="geometry" />
        </mxCell>
        <mxCell id="dPdgdIDJKfHk3a8-XdrI-20" value="Скачивание" style="text;html=1;strokeColor=none;fillColor=none;align=center;verticalAlign=middle;whiteSpace=wrap;rounded=0;" parent="1" vertex="1">
          <mxGeometry x="1480" y="470" width="40" height="20" as="geometry" />
        </mxCell>
        <mxCell id="dPdgdIDJKfHk3a8-XdrI-21" value="" style="endArrow=none;dashed=1;html=1;strokeColor=#190033;" parent="1" edge="1">
          <mxGeometry width="50" height="50" relative="1" as="geometry">
            <mxPoint x="529" y="480" as="sourcePoint" />
            <mxPoint x="529" y="80" as="targetPoint" />
          </mxGeometry>
        </mxCell>
        <mxCell id="dPdgdIDJKfHk3a8-XdrI-22" value="" style="endArrow=none;dashed=1;html=1;strokeColor=#190033;" parent="1" edge="1">
          <mxGeometry width="50" height="50" relative="1" as="geometry">
            <mxPoint x="140" y="80" as="sourcePoint" />
            <mxPoint x="530" y="80" as="targetPoint" />
          </mxGeometry>
        </mxCell>
        <mxCell id="dPdgdIDJKfHk3a8-XdrI-23" value="" style="endArrow=none;dashed=1;html=1;strokeColor=#190033;" parent="1" edge="1">
          <mxGeometry width="50" height="50" relative="1" as="geometry">
            <mxPoint x="140" y="476.5" as="sourcePoint" />
            <mxPoint x="140" y="80" as="targetPoint" />
          </mxGeometry>
        </mxCell>
        <mxCell id="dPdgdIDJKfHk3a8-XdrI-24" value="" style="endArrow=none;dashed=1;html=1;strokeColor=#190033;" parent="1" edge="1">
          <mxGeometry width="50" height="50" relative="1" as="geometry">
            <mxPoint x="525.5" y="479.5" as="sourcePoint" />
            <mxPoint x="140" y="480" as="targetPoint" />
          </mxGeometry>
        </mxCell>
        <mxCell id="dPdgdIDJKfHk3a8-XdrI-25" value="" style="endArrow=classic;html=1;strokeColor=#190033;" parent="1" edge="1">
          <mxGeometry width="50" height="50" relative="1" as="geometry">
            <mxPoint x="780" y="220" as="sourcePoint" />
            <mxPoint x="840" y="220" as="targetPoint" />
          </mxGeometry>
        </mxCell>
        <mxCell id="dPdgdIDJKfHk3a8-XdrI-26" value="" style="endArrow=classic;html=1;strokeColor=#190033;" parent="1" edge="1">
          <mxGeometry width="50" height="50" relative="1" as="geometry">
            <mxPoint x="780" y="240" as="sourcePoint" />
            <mxPoint x="840" y="240" as="targetPoint" />
          </mxGeometry>
        </mxCell>
        <mxCell id="dPdgdIDJKfHk3a8-XdrI-27" value="" style="endArrow=classic;html=1;strokeColor=#190033;" parent="1" edge="1">
          <mxGeometry width="50" height="50" relative="1" as="geometry">
            <mxPoint x="780" y="263" as="sourcePoint" />
            <mxPoint x="840" y="263" as="targetPoint" />
          </mxGeometry>
        </mxCell>
        <mxCell id="dPdgdIDJKfHk3a8-XdrI-32" value="" style="endArrow=classic;html=1;strokeColor=#190033;exitX=1;exitY=0.5;exitDx=0;exitDy=0;" parent="1" source="dPdgdIDJKfHk3a8-XdrI-19" edge="1">
          <mxGeometry width="50" height="50" relative="1" as="geometry">
            <mxPoint x="1590" y="479.5" as="sourcePoint" />
            <mxPoint x="1640" y="480" as="targetPoint" />
          </mxGeometry>
        </mxCell>
        <mxCell id="dPdgdIDJKfHk3a8-XdrI-34" value="" style="endArrow=classic;html=1;strokeColor=#190033;" parent="1" edge="1">
          <mxGeometry width="50" height="50" relative="1" as="geometry">
            <mxPoint x="780" y="420" as="sourcePoint" />
            <mxPoint x="1241" y="420" as="targetPoint" />
          </mxGeometry>
        </mxCell>
        <mxCell id="dPdgdIDJKfHk3a8-XdrI-35" value="" style="endArrow=classic;html=1;strokeColor=#190033;" parent="1" edge="1">
          <mxGeometry width="50" height="50" relative="1" as="geometry">
            <mxPoint x="870" y="630" as="sourcePoint" />
            <mxPoint x="870" y="285" as="targetPoint" />
          </mxGeometry>
        </mxCell>
        <mxCell id="dPdgdIDJKfHk3a8-XdrI-36" value="" style="endArrow=classic;html=1;strokeColor=#190033;" parent="1" edge="1">
          <mxGeometry width="50" height="50" relative="1" as="geometry">
            <mxPoint x="1070" y="630" as="sourcePoint" />
            <mxPoint x="1070" y="360" as="targetPoint" />
          </mxGeometry>
        </mxCell>
        <mxCell id="dPdgdIDJKfHk3a8-XdrI-37" value="" style="endArrow=classic;html=1;strokeColor=#190033;" parent="1" edge="1">
          <mxGeometry width="50" height="50" relative="1" as="geometry">
            <mxPoint x="1270" y="630" as="sourcePoint" />
            <mxPoint x="1270" y="440" as="targetPoint" />
          </mxGeometry>
        </mxCell>
        <mxCell id="dPdgdIDJKfHk3a8-XdrI-38" value="" style="endArrow=classic;html=1;strokeColor=#190033;" parent="1" edge="1">
          <mxGeometry width="50" height="50" relative="1" as="geometry">
            <mxPoint x="1460" y="630" as="sourcePoint" />
            <mxPoint x="1460" y="520" as="targetPoint" />
          </mxGeometry>
        </mxCell>
        <mxCell id="dPdgdIDJKfHk3a8-XdrI-40" value="" style="endArrow=classic;html=1;strokeColor=#190033;" parent="1" edge="1">
          <mxGeometry width="50" height="50" relative="1" as="geometry">
            <mxPoint x="1070" y="100" as="sourcePoint" />
            <mxPoint x="1070" y="280" as="targetPoint" />
          </mxGeometry>
        </mxCell>
        <mxCell id="dPdgdIDJKfHk3a8-XdrI-41" value="" style="endArrow=classic;html=1;strokeColor=#190033;" parent="1" edge="1">
          <mxGeometry width="50" height="50" relative="1" as="geometry">
            <mxPoint x="1250" y="100" as="sourcePoint" />
            <mxPoint x="1250" y="360" as="targetPoint" />
          </mxGeometry>
        </mxCell>
        <mxCell id="dPdgdIDJKfHk3a8-XdrI-42" value="" style="endArrow=classic;html=1;strokeColor=#190033;" parent="1" edge="1">
          <mxGeometry width="50" height="50" relative="1" as="geometry">
            <mxPoint x="1460" y="100" as="sourcePoint" />
            <mxPoint x="1460" y="440" as="targetPoint" />
          </mxGeometry>
        </mxCell>
        <mxCell id="dPdgdIDJKfHk3a8-XdrI-43" value="" style="endArrow=classic;html=1;strokeColor=#190033;" parent="1" edge="1">
          <mxGeometry width="50" height="50" relative="1" as="geometry">
            <mxPoint x="870" y="100" as="sourcePoint" />
            <mxPoint x="870" y="200" as="targetPoint" />
          </mxGeometry>
        </mxCell>
        <mxCell id="dPdgdIDJKfHk3a8-XdrI-44" value="Фио" style="text;html=1;strokeColor=none;fillColor=none;align=center;verticalAlign=middle;whiteSpace=wrap;rounded=0;" parent="1" vertex="1">
          <mxGeometry x="787" y="200" width="40" height="25" as="geometry" />
        </mxCell>
        <mxCell id="dPdgdIDJKfHk3a8-XdrI-45" value="Почта" style="text;html=1;strokeColor=none;fillColor=none;align=center;verticalAlign=middle;whiteSpace=wrap;rounded=0;" parent="1" vertex="1">
          <mxGeometry x="787" y="225" width="41" height="16" as="geometry" />
        </mxCell>
        <mxCell id="dPdgdIDJKfHk3a8-XdrI-46" value="Возраст" style="text;html=1;strokeColor=none;fillColor=none;align=center;verticalAlign=middle;whiteSpace=wrap;rounded=0;" parent="1" vertex="1">
          <mxGeometry x="788" y="244" width="40" height="20" as="geometry" />
        </mxCell>
        <mxCell id="dPdgdIDJKfHk3a8-XdrI-48" value="Пользователь" style="text;html=1;strokeColor=none;fillColor=none;align=center;verticalAlign=middle;whiteSpace=wrap;rounded=0;rotation=0;" parent="1" vertex="1">
          <mxGeometry x="1060" y="490" width="100" height="30" as="geometry" />
        </mxCell>
        <mxCell id="dPdgdIDJKfHk3a8-XdrI-51" value="Доступ в профиль" style="text;html=1;strokeColor=none;fillColor=none;align=center;verticalAlign=middle;whiteSpace=wrap;rounded=0;" parent="1" vertex="1">
          <mxGeometry x="960" y="213" width="91" height="24" as="geometry" />
        </mxCell>
        <mxCell id="dPdgdIDJKfHk3a8-XdrI-52" value="Данные карты" style="text;html=1;strokeColor=none;fillColor=none;align=center;verticalAlign=middle;whiteSpace=wrap;rounded=0;" parent="1" vertex="1">
          <mxGeometry x="920" y="400" width="100" height="20" as="geometry" />
        </mxCell>
        <mxCell id="dPdgdIDJKfHk3a8-XdrI-53" value="Номер фотографии" style="text;html=1;strokeColor=none;fillColor=none;align=center;verticalAlign=middle;whiteSpace=wrap;rounded=0;" parent="1" vertex="1">
          <mxGeometry x="1380" y="380" width="50" height="10" as="geometry" />
        </mxCell>
        <mxCell id="dPdgdIDJKfHk3a8-XdrI-54" value="Фотография" style="text;html=1;strokeColor=none;fillColor=none;align=center;verticalAlign=middle;whiteSpace=wrap;rounded=0;" parent="1" vertex="1">
          <mxGeometry x="1570" y="460" width="54" height="20" as="geometry" />
        </mxCell>
        <mxCell id="dPdgdIDJKfHk3a8-XdrI-60" value="" style="endArrow=none;dashed=1;html=1;strokeColor=#190033;" parent="1" edge="1">
          <mxGeometry width="50" height="50" relative="1" as="geometry">
            <mxPoint x="780" y="630" as="sourcePoint" />
            <mxPoint x="780" y="100" as="targetPoint" />
          </mxGeometry>
        </mxCell>
        <mxCell id="dPdgdIDJKfHk3a8-XdrI-61" value="" style="endArrow=none;dashed=1;html=1;strokeColor=#190033;" parent="1" edge="1">
          <mxGeometry width="50" height="50" relative="1" as="geometry">
            <mxPoint x="780" y="630" as="sourcePoint" />
            <mxPoint x="1640" y="630" as="targetPoint" />
          </mxGeometry>
        </mxCell>
        <mxCell id="dPdgdIDJKfHk3a8-XdrI-62" value="" style="endArrow=none;dashed=1;html=1;strokeColor=#190033;" parent="1" edge="1">
          <mxGeometry width="50" height="50" relative="1" as="geometry">
            <mxPoint x="1640" y="630" as="sourcePoint" />
            <mxPoint x="1640" y="100" as="targetPoint" />
          </mxGeometry>
        </mxCell>
        <mxCell id="dPdgdIDJKfHk3a8-XdrI-63" value="" style="endArrow=none;dashed=1;html=1;strokeColor=#190033;" parent="1" edge="1">
          <mxGeometry width="50" height="50" relative="1" as="geometry">
            <mxPoint x="780" y="100" as="sourcePoint" />
            <mxPoint x="1640" y="100" as="targetPoint" />
          </mxGeometry>
        </mxCell>
        <mxCell id="dPdgdIDJKfHk3a8-XdrI-64" value="Бронь" style="text;html=1;strokeColor=none;fillColor=none;align=center;verticalAlign=middle;whiteSpace=wrap;rounded=0;" parent="1" vertex="1">
          <mxGeometry x="1180" y="302.5" width="21" height="20" as="geometry" />
        </mxCell>
        <mxCell id="dPdgdIDJKfHk3a8-XdrI-66" value="Подключение к интернету" style="text;html=1;strokeColor=none;fillColor=none;align=center;verticalAlign=middle;whiteSpace=wrap;rounded=0;rotation=0;" parent="1" vertex="1">
          <mxGeometry x="1460" y="330" width="115" height="30" as="geometry" />
        </mxCell>
        <mxCell id="z4wbUaanoXz14fya7bWA-15" value="Подключение к интернету" style="text;html=1;strokeColor=none;fillColor=none;align=center;verticalAlign=middle;whiteSpace=wrap;rounded=0;rotation=0;" parent="1" vertex="1">
          <mxGeometry x="1230" y="268.5" width="128" height="33" as="geometry" />
        </mxCell>
        <mxCell id="z4wbUaanoXz14fya7bWA-16" value="Подключение к интернету" style="text;html=1;strokeColor=none;fillColor=none;align=center;verticalAlign=middle;whiteSpace=wrap;rounded=0;rotation=0;" parent="1" vertex="1">
          <mxGeometry x="1070" y="210" width="115" height="34" as="geometry" />
        </mxCell>
        <mxCell id="z4wbUaanoXz14fya7bWA-17" value="Подключение к интернету" style="text;html=1;strokeColor=none;fillColor=none;align=center;verticalAlign=middle;whiteSpace=wrap;rounded=0;rotation=0;" parent="1" vertex="1">
          <mxGeometry x="860" y="132.5" width="115" height="34" as="geometry" />
        </mxCell>
        <mxCell id="z4wbUaanoXz14fya7bWA-19" value="" style="endArrow=classic;html=1;strokeColor=#190033;" parent="1" edge="1">
          <mxGeometry width="50" height="50" relative="1" as="geometry">
            <mxPoint x="1340" y="100" as="sourcePoint" />
            <mxPoint x="1340" y="360" as="targetPoint" />
          </mxGeometry>
        </mxCell>
        <mxCell id="z4wbUaanoXz14fya7bWA-20" value="Прайс" style="text;html=1;strokeColor=none;fillColor=none;align=center;verticalAlign=middle;whiteSpace=wrap;rounded=0;" parent="1" vertex="1">
          <mxGeometry x="1340" y="278" width="40" height="20" as="geometry" />
        </mxCell>
        <mxCell id="z4wbUaanoXz14fya7bWA-21" value="Пользователь" style="text;html=1;strokeColor=none;fillColor=none;align=center;verticalAlign=middle;whiteSpace=wrap;rounded=0;rotation=0;" parent="1" vertex="1">
          <mxGeometry x="860" y="440" width="100" height="30" as="geometry" />
        </mxCell>
        <mxCell id="z4wbUaanoXz14fya7bWA-22" value="Пользователь" style="text;html=1;strokeColor=none;fillColor=none;align=center;verticalAlign=middle;whiteSpace=wrap;rounded=0;rotation=0;" parent="1" vertex="1">
          <mxGeometry x="1261" y="520" width="100" height="30" as="geometry" />
        </mxCell>
        <mxCell id="z4wbUaanoXz14fya7bWA-23" value="Пользователь" style="text;html=1;strokeColor=none;fillColor=none;align=center;verticalAlign=middle;whiteSpace=wrap;rounded=0;rotation=0;" parent="1" vertex="1">
          <mxGeometry x="1450" y="570" width="100" height="30" as="geometry" />
        </mxCell>
        <mxCell id="iIhj3dJOCKlFRA4JwL5N-6" value="" style="edgeStyle=orthogonalEdgeStyle;rounded=0;orthogonalLoop=1;jettySize=auto;html=1;" edge="1" parent="1" source="iIhj3dJOCKlFRA4JwL5N-1" target="iIhj3dJOCKlFRA4JwL5N-4">
          <mxGeometry relative="1" as="geometry" />
        </mxCell>
        <mxCell id="iIhj3dJOCKlFRA4JwL5N-1" value="" style="ellipse;whiteSpace=wrap;html=1;" vertex="1" parent="1">
          <mxGeometry x="312" y="780" width="120" height="80" as="geometry" />
        </mxCell>
        <mxCell id="iIhj3dJOCKlFRA4JwL5N-2" value="Начало&amp;nbsp;" style="text;html=1;strokeColor=none;fillColor=none;align=center;verticalAlign=middle;whiteSpace=wrap;rounded=0;" vertex="1" parent="1">
          <mxGeometry x="352" y="810" width="40" height="20" as="geometry" />
        </mxCell>
        <mxCell id="iIhj3dJOCKlFRA4JwL5N-8" style="edgeStyle=orthogonalEdgeStyle;rounded=0;orthogonalLoop=1;jettySize=auto;html=1;exitX=0.5;exitY=1;exitDx=0;exitDy=0;entryX=0.5;entryY=0;entryDx=0;entryDy=0;" edge="1" parent="1" source="iIhj3dJOCKlFRA4JwL5N-3" target="iIhj3dJOCKlFRA4JwL5N-7">
          <mxGeometry relative="1" as="geometry">
            <mxPoint x="370" y="1000" as="targetPoint" />
          </mxGeometry>
        </mxCell>
        <mxCell id="iIhj3dJOCKlFRA4JwL5N-3" value="" style="shape=parallelogram;perimeter=parallelogramPerimeter;whiteSpace=wrap;html=1;fixedSize=1;" vertex="1" parent="1">
          <mxGeometry x="310" y="890" width="120" height="60" as="geometry" />
        </mxCell>
        <mxCell id="iIhj3dJOCKlFRA4JwL5N-4" value="Баланс=800&lt;br&gt;Фотографии&lt;br&gt;Стоимость" style="text;html=1;strokeColor=none;fillColor=none;align=center;verticalAlign=middle;whiteSpace=wrap;rounded=0;" vertex="1" parent="1">
          <mxGeometry x="317" y="895" width="110" height="50" as="geometry" />
        </mxCell>
        <mxCell id="iIhj3dJOCKlFRA4JwL5N-11" style="edgeStyle=orthogonalEdgeStyle;rounded=0;orthogonalLoop=1;jettySize=auto;html=1;exitX=0.5;exitY=1;exitDx=0;exitDy=0;" edge="1" parent="1" source="iIhj3dJOCKlFRA4JwL5N-7" target="iIhj3dJOCKlFRA4JwL5N-10">
          <mxGeometry relative="1" as="geometry" />
        </mxCell>
        <mxCell id="iIhj3dJOCKlFRA4JwL5N-7" value="" style="rounded=0;whiteSpace=wrap;html=1;" vertex="1" parent="1">
          <mxGeometry x="307" y="980" width="120" height="60" as="geometry" />
        </mxCell>
        <mxCell id="iIhj3dJOCKlFRA4JwL5N-9" value="Ввод нужного хеш-тега" style="text;html=1;strokeColor=none;fillColor=none;align=center;verticalAlign=middle;whiteSpace=wrap;rounded=0;" vertex="1" parent="1">
          <mxGeometry x="321" y="995" width="93" height="30" as="geometry" />
        </mxCell>
        <mxCell id="iIhj3dJOCKlFRA4JwL5N-15" style="edgeStyle=orthogonalEdgeStyle;rounded=0;orthogonalLoop=1;jettySize=auto;html=1;exitX=1;exitY=0.5;exitDx=0;exitDy=0;" edge="1" parent="1" source="iIhj3dJOCKlFRA4JwL5N-10">
          <mxGeometry relative="1" as="geometry">
            <mxPoint x="367" y="960" as="targetPoint" />
            <Array as="points">
              <mxPoint x="530" y="1120" />
              <mxPoint x="530" y="960" />
            </Array>
          </mxGeometry>
        </mxCell>
        <mxCell id="iIhj3dJOCKlFRA4JwL5N-21" style="edgeStyle=orthogonalEdgeStyle;rounded=0;orthogonalLoop=1;jettySize=auto;html=1;exitX=0;exitY=0.5;exitDx=0;exitDy=0;entryX=0.5;entryY=0;entryDx=0;entryDy=0;" edge="1" parent="1" source="iIhj3dJOCKlFRA4JwL5N-10" target="iIhj3dJOCKlFRA4JwL5N-20">
          <mxGeometry relative="1" as="geometry" />
        </mxCell>
        <mxCell id="iIhj3dJOCKlFRA4JwL5N-10" value="" style="rhombus;whiteSpace=wrap;html=1;" vertex="1" parent="1">
          <mxGeometry x="288" y="1080" width="158" height="80" as="geometry" />
        </mxCell>
        <mxCell id="iIhj3dJOCKlFRA4JwL5N-12" value="Нашлось фото или нет" style="text;html=1;strokeColor=none;fillColor=none;align=center;verticalAlign=middle;whiteSpace=wrap;rounded=0;" vertex="1" parent="1">
          <mxGeometry x="327" y="1105" width="80" height="30" as="geometry" />
        </mxCell>
        <mxCell id="iIhj3dJOCKlFRA4JwL5N-13" value="Нет" style="text;html=1;strokeColor=none;fillColor=none;align=center;verticalAlign=middle;whiteSpace=wrap;rounded=0;" vertex="1" parent="1">
          <mxGeometry x="440" y="1090" width="40" height="20" as="geometry" />
        </mxCell>
        <mxCell id="iIhj3dJOCKlFRA4JwL5N-14" value="Да" style="text;html=1;strokeColor=none;fillColor=none;align=center;verticalAlign=middle;whiteSpace=wrap;rounded=0;" vertex="1" parent="1">
          <mxGeometry x="267" y="1090" width="40" height="20" as="geometry" />
        </mxCell>
        <mxCell id="iIhj3dJOCKlFRA4JwL5N-18" value="Ввод другого" style="text;html=1;strokeColor=none;fillColor=none;align=center;verticalAlign=middle;whiteSpace=wrap;rounded=0;" vertex="1" parent="1">
          <mxGeometry x="540" y="1020" width="40" height="20" as="geometry" />
        </mxCell>
        <mxCell id="iIhj3dJOCKlFRA4JwL5N-25" style="edgeStyle=orthogonalEdgeStyle;rounded=0;orthogonalLoop=1;jettySize=auto;html=1;exitX=0.5;exitY=1;exitDx=0;exitDy=0;entryX=0.5;entryY=0;entryDx=0;entryDy=0;" edge="1" parent="1" source="iIhj3dJOCKlFRA4JwL5N-20" target="iIhj3dJOCKlFRA4JwL5N-23">
          <mxGeometry relative="1" as="geometry" />
        </mxCell>
        <mxCell id="iIhj3dJOCKlFRA4JwL5N-20" value="" style="rounded=0;whiteSpace=wrap;html=1;" vertex="1" parent="1">
          <mxGeometry x="307.5" y="1230" width="120" height="60" as="geometry" />
        </mxCell>
        <mxCell id="iIhj3dJOCKlFRA4JwL5N-22" value="Выбор фотографии&amp;nbsp;" style="text;html=1;strokeColor=none;fillColor=none;align=center;verticalAlign=middle;whiteSpace=wrap;rounded=0;" vertex="1" parent="1">
          <mxGeometry x="350" y="1250" width="40" height="20" as="geometry" />
        </mxCell>
        <mxCell id="iIhj3dJOCKlFRA4JwL5N-27" style="edgeStyle=orthogonalEdgeStyle;rounded=0;orthogonalLoop=1;jettySize=auto;html=1;exitX=0.5;exitY=1;exitDx=0;exitDy=0;entryX=0.5;entryY=0;entryDx=0;entryDy=0;" edge="1" parent="1" source="iIhj3dJOCKlFRA4JwL5N-23" target="iIhj3dJOCKlFRA4JwL5N-26">
          <mxGeometry relative="1" as="geometry" />
        </mxCell>
        <mxCell id="iIhj3dJOCKlFRA4JwL5N-23" value="" style="rounded=0;whiteSpace=wrap;html=1;" vertex="1" parent="1">
          <mxGeometry x="310" y="1320" width="120" height="60" as="geometry" />
        </mxCell>
        <mxCell id="iIhj3dJOCKlFRA4JwL5N-24" value="Фото" style="text;html=1;strokeColor=none;fillColor=none;align=center;verticalAlign=middle;whiteSpace=wrap;rounded=0;" vertex="1" parent="1">
          <mxGeometry x="352" y="1340" width="40" height="20" as="geometry" />
        </mxCell>
        <mxCell id="iIhj3dJOCKlFRA4JwL5N-33" style="edgeStyle=orthogonalEdgeStyle;rounded=0;orthogonalLoop=1;jettySize=auto;html=1;exitX=1;exitY=0.5;exitDx=0;exitDy=0;entryX=0.5;entryY=0;entryDx=0;entryDy=0;" edge="1" parent="1" source="iIhj3dJOCKlFRA4JwL5N-26">
          <mxGeometry relative="1" as="geometry">
            <mxPoint x="480" y="1520" as="targetPoint" />
          </mxGeometry>
        </mxCell>
        <mxCell id="iIhj3dJOCKlFRA4JwL5N-34" style="edgeStyle=orthogonalEdgeStyle;rounded=0;orthogonalLoop=1;jettySize=auto;html=1;exitX=0;exitY=0.5;exitDx=0;exitDy=0;entryX=0.5;entryY=0;entryDx=0;entryDy=0;" edge="1" parent="1" source="iIhj3dJOCKlFRA4JwL5N-26" target="iIhj3dJOCKlFRA4JwL5N-65">
          <mxGeometry relative="1" as="geometry">
            <mxPoint x="122" y="1530" as="targetPoint" />
          </mxGeometry>
        </mxCell>
        <mxCell id="iIhj3dJOCKlFRA4JwL5N-26" value="" style="rhombus;whiteSpace=wrap;html=1;" vertex="1" parent="1">
          <mxGeometry x="288.5" y="1410" width="158" height="80" as="geometry" />
        </mxCell>
        <mxCell id="iIhj3dJOCKlFRA4JwL5N-28" value="Стоимость&amp;gt;800" style="text;html=1;strokeColor=none;fillColor=none;align=center;verticalAlign=middle;whiteSpace=wrap;rounded=0;" vertex="1" parent="1">
          <mxGeometry x="352" y="1440" width="40" height="20" as="geometry" />
        </mxCell>
        <mxCell id="iIhj3dJOCKlFRA4JwL5N-29" value="Нет" style="text;html=1;strokeColor=none;fillColor=none;align=center;verticalAlign=middle;whiteSpace=wrap;rounded=0;" vertex="1" parent="1">
          <mxGeometry x="440" y="1420" width="40" height="20" as="geometry" />
        </mxCell>
        <mxCell id="iIhj3dJOCKlFRA4JwL5N-30" value="Да" style="text;html=1;strokeColor=none;fillColor=none;align=center;verticalAlign=middle;whiteSpace=wrap;rounded=0;" vertex="1" parent="1">
          <mxGeometry x="270" y="1420" width="40" height="20" as="geometry" />
        </mxCell>
        <mxCell id="iIhj3dJOCKlFRA4JwL5N-43" style="edgeStyle=orthogonalEdgeStyle;rounded=0;orthogonalLoop=1;jettySize=auto;html=1;exitX=0.5;exitY=1;exitDx=0;exitDy=0;entryX=0.5;entryY=0;entryDx=0;entryDy=0;" edge="1" parent="1" source="iIhj3dJOCKlFRA4JwL5N-36" target="iIhj3dJOCKlFRA4JwL5N-42">
          <mxGeometry relative="1" as="geometry" />
        </mxCell>
        <mxCell id="iIhj3dJOCKlFRA4JwL5N-36" value="" style="rounded=0;whiteSpace=wrap;html=1;" vertex="1" parent="1">
          <mxGeometry x="420" y="1520" width="120" height="60" as="geometry" />
        </mxCell>
        <mxCell id="iIhj3dJOCKlFRA4JwL5N-37" value="Покупка фотографии" style="text;html=1;strokeColor=none;fillColor=none;align=center;verticalAlign=middle;whiteSpace=wrap;rounded=0;" vertex="1" parent="1">
          <mxGeometry x="460" y="1540" width="40" height="20" as="geometry" />
        </mxCell>
        <mxCell id="iIhj3dJOCKlFRA4JwL5N-48" style="edgeStyle=orthogonalEdgeStyle;rounded=0;orthogonalLoop=1;jettySize=auto;html=1;exitX=0;exitY=0.5;exitDx=0;exitDy=0;entryX=0.5;entryY=0;entryDx=0;entryDy=0;" edge="1" parent="1" source="iIhj3dJOCKlFRA4JwL5N-42" target="iIhj3dJOCKlFRA4JwL5N-47">
          <mxGeometry relative="1" as="geometry">
            <mxPoint x="380" y="1730" as="targetPoint" />
          </mxGeometry>
        </mxCell>
        <mxCell id="iIhj3dJOCKlFRA4JwL5N-51" style="edgeStyle=orthogonalEdgeStyle;rounded=0;orthogonalLoop=1;jettySize=auto;html=1;exitX=1;exitY=0.5;exitDx=0;exitDy=0;entryX=0.5;entryY=0;entryDx=0;entryDy=0;" edge="1" parent="1" source="iIhj3dJOCKlFRA4JwL5N-42" target="iIhj3dJOCKlFRA4JwL5N-54">
          <mxGeometry relative="1" as="geometry">
            <mxPoint x="590" y="1740" as="targetPoint" />
          </mxGeometry>
        </mxCell>
        <mxCell id="iIhj3dJOCKlFRA4JwL5N-42" value="" style="rhombus;whiteSpace=wrap;html=1;" vertex="1" parent="1">
          <mxGeometry x="401" y="1610" width="158" height="80" as="geometry" />
        </mxCell>
        <mxCell id="iIhj3dJOCKlFRA4JwL5N-44" value="Покупка удалась" style="text;html=1;strokeColor=none;fillColor=none;align=center;verticalAlign=middle;whiteSpace=wrap;rounded=0;" vertex="1" parent="1">
          <mxGeometry x="460" y="1640" width="40" height="20" as="geometry" />
        </mxCell>
        <mxCell id="iIhj3dJOCKlFRA4JwL5N-45" value="Нет" style="text;html=1;strokeColor=none;fillColor=none;align=center;verticalAlign=middle;whiteSpace=wrap;rounded=0;" vertex="1" parent="1">
          <mxGeometry x="550" y="1620" width="40" height="20" as="geometry" />
        </mxCell>
        <mxCell id="iIhj3dJOCKlFRA4JwL5N-46" value="Да" style="text;html=1;strokeColor=none;fillColor=none;align=center;verticalAlign=middle;whiteSpace=wrap;rounded=0;" vertex="1" parent="1">
          <mxGeometry x="383" y="1620" width="40" height="20" as="geometry" />
        </mxCell>
        <mxCell id="iIhj3dJOCKlFRA4JwL5N-58" style="edgeStyle=orthogonalEdgeStyle;rounded=0;orthogonalLoop=1;jettySize=auto;html=1;exitX=0.5;exitY=1;exitDx=0;exitDy=0;entryX=0.5;entryY=0;entryDx=0;entryDy=0;" edge="1" parent="1" source="iIhj3dJOCKlFRA4JwL5N-47" target="iIhj3dJOCKlFRA4JwL5N-57">
          <mxGeometry relative="1" as="geometry" />
        </mxCell>
        <mxCell id="iIhj3dJOCKlFRA4JwL5N-47" value="" style="shape=parallelogram;perimeter=parallelogramPerimeter;whiteSpace=wrap;html=1;fixedSize=1;" vertex="1" parent="1">
          <mxGeometry x="317" y="1740" width="120" height="60" as="geometry" />
        </mxCell>
        <mxCell id="iIhj3dJOCKlFRA4JwL5N-50" value="Чек" style="text;html=1;strokeColor=none;fillColor=none;align=center;verticalAlign=middle;whiteSpace=wrap;rounded=0;" vertex="1" parent="1">
          <mxGeometry x="354.5" y="1760" width="40" height="20" as="geometry" />
        </mxCell>
        <mxCell id="iIhj3dJOCKlFRA4JwL5N-59" style="edgeStyle=orthogonalEdgeStyle;rounded=0;orthogonalLoop=1;jettySize=auto;html=1;exitX=0.5;exitY=1;exitDx=0;exitDy=0;entryX=0.5;entryY=0;entryDx=0;entryDy=0;" edge="1" parent="1" source="iIhj3dJOCKlFRA4JwL5N-54" target="iIhj3dJOCKlFRA4JwL5N-57">
          <mxGeometry relative="1" as="geometry" />
        </mxCell>
        <mxCell id="iIhj3dJOCKlFRA4JwL5N-54" value="" style="shape=parallelogram;perimeter=parallelogramPerimeter;whiteSpace=wrap;html=1;fixedSize=1;" vertex="1" parent="1">
          <mxGeometry x="520" y="1740" width="120" height="60" as="geometry" />
        </mxCell>
        <mxCell id="iIhj3dJOCKlFRA4JwL5N-55" value="Ошибка" style="text;html=1;strokeColor=none;fillColor=none;align=center;verticalAlign=middle;whiteSpace=wrap;rounded=0;" vertex="1" parent="1">
          <mxGeometry x="560" y="1760" width="40" height="20" as="geometry" />
        </mxCell>
        <mxCell id="iIhj3dJOCKlFRA4JwL5N-57" value="" style="ellipse;whiteSpace=wrap;html=1;" vertex="1" parent="1">
          <mxGeometry x="317" y="1900" width="120" height="80" as="geometry" />
        </mxCell>
        <mxCell id="iIhj3dJOCKlFRA4JwL5N-64" value="Конец" style="text;html=1;strokeColor=none;fillColor=none;align=center;verticalAlign=middle;whiteSpace=wrap;rounded=0;" vertex="1" parent="1">
          <mxGeometry x="357" y="1930" width="40" height="20" as="geometry" />
        </mxCell>
        <mxCell id="iIhj3dJOCKlFRA4JwL5N-70" style="edgeStyle=orthogonalEdgeStyle;rounded=0;orthogonalLoop=1;jettySize=auto;html=1;exitX=1;exitY=0.5;exitDx=0;exitDy=0;entryX=0.5;entryY=0;entryDx=0;entryDy=0;" edge="1" parent="1" source="iIhj3dJOCKlFRA4JwL5N-65" target="iIhj3dJOCKlFRA4JwL5N-68">
          <mxGeometry relative="1" as="geometry" />
        </mxCell>
        <mxCell id="iIhj3dJOCKlFRA4JwL5N-75" style="edgeStyle=orthogonalEdgeStyle;rounded=0;orthogonalLoop=1;jettySize=auto;html=1;exitX=0;exitY=0.5;exitDx=0;exitDy=0;" edge="1" parent="1" source="iIhj3dJOCKlFRA4JwL5N-65">
          <mxGeometry relative="1" as="geometry">
            <mxPoint x="370" y="1210" as="targetPoint" />
            <Array as="points">
              <mxPoint x="-10" y="1580" />
              <mxPoint x="-10" y="1210" />
            </Array>
          </mxGeometry>
        </mxCell>
        <mxCell id="iIhj3dJOCKlFRA4JwL5N-65" value="" style="rhombus;whiteSpace=wrap;html=1;" vertex="1" parent="1">
          <mxGeometry x="37" y="1540" width="158" height="80" as="geometry" />
        </mxCell>
        <mxCell id="iIhj3dJOCKlFRA4JwL5N-66" value="Хотите ли вы поменять свой выбор&amp;nbsp;" style="text;html=1;strokeColor=none;fillColor=none;align=center;verticalAlign=middle;whiteSpace=wrap;rounded=0;" vertex="1" parent="1">
          <mxGeometry x="66" y="1565" width="100" height="30" as="geometry" />
        </mxCell>
        <mxCell id="iIhj3dJOCKlFRA4JwL5N-67" value="Нет" style="text;html=1;strokeColor=none;fillColor=none;align=center;verticalAlign=middle;whiteSpace=wrap;rounded=0;" vertex="1" parent="1">
          <mxGeometry x="182" y="1545" width="40" height="20" as="geometry" />
        </mxCell>
        <mxCell id="iIhj3dJOCKlFRA4JwL5N-76" style="edgeStyle=orthogonalEdgeStyle;rounded=0;orthogonalLoop=1;jettySize=auto;html=1;exitX=0.5;exitY=1;exitDx=0;exitDy=0;entryX=0.5;entryY=0;entryDx=0;entryDy=0;" edge="1" parent="1" source="iIhj3dJOCKlFRA4JwL5N-68" target="iIhj3dJOCKlFRA4JwL5N-57">
          <mxGeometry relative="1" as="geometry">
            <Array as="points">
              <mxPoint x="239" y="1850" />
              <mxPoint x="377" y="1850" />
            </Array>
          </mxGeometry>
        </mxCell>
        <mxCell id="iIhj3dJOCKlFRA4JwL5N-68" value="" style="shape=parallelogram;perimeter=parallelogramPerimeter;whiteSpace=wrap;html=1;fixedSize=1;" vertex="1" parent="1">
          <mxGeometry x="178.5" y="1640" width="120" height="60" as="geometry" />
        </mxCell>
        <mxCell id="iIhj3dJOCKlFRA4JwL5N-71" value="Извините. У вас не хватает средств." style="text;html=1;strokeColor=none;fillColor=none;align=center;verticalAlign=middle;whiteSpace=wrap;rounded=0;" vertex="1" parent="1">
          <mxGeometry x="195" y="1645" width="97.5" height="50" as="geometry" />
        </mxCell>
        <mxCell id="iIhj3dJOCKlFRA4JwL5N-73" value="Да" style="text;html=1;strokeColor=none;fillColor=none;align=center;verticalAlign=middle;whiteSpace=wrap;rounded=0;" vertex="1" parent="1">
          <mxGeometry x="20" y="1545" width="40" height="20" as="geometry" />
        </mxCell>
      </root>
    </mxGraphModel>
  </diagram>
</mxfile>
